<?xml version="1.0" encoding="utf-8"?>
<!-- Generator: Adobe Illustrator 16.0.0, SVG Export Plug-In . SVG Version: 6.00 Build 0)  -->
<!DOCTYPE svg PUBLIC "-//W3C//DTD SVG 1.1//EN" "http://www.w3.org/Graphics/SVG/1.1/DTD/svg11.dtd">
<svg version="1.1" id="Layer_1" xmlns="http://www.w3.org/2000/svg" xmlns:xlink="http://www.w3.org/1999/xlink" x="0px" y="0px"
	 width="24px" height="24px" viewBox="0 0 24 24" enable-background="new 0 0 24 24" xml:space="preserve">
<g>
	<path fill="#231F20" d="M16.383,7.15c-0.047,0.002-0.079,0.018-0.113,0.031c0.015,0.01,0.028,0.02,0.044,0.029
		C16.336,7.191,16.361,7.176,16.383,7.15z"/>
	<path fill="#231F20" d="M8.854,3.689c0.022,0.007,0.042,0.002,0.062,0.003C8.899,3.684,8.884,3.674,8.868,3.665
		C8.866,3.677,8.854,3.675,8.854,3.689z"/>
	<path d="M20.925,5.842c-0.029-0.148-0.391-1.184-0.709-1.328c-0.049,0.037-0.115,0.063-0.203,0.063
		c0.063-0.084,0.133-0.096,0.203-0.063c0.252-0.182,0.084-0.725-0.1-0.936c-0.197-0.223-0.4-0.293-0.715-0.211
		c-0.029,0.008-0.084,0.037-0.145,0.074c-0.066-0.703-1.074-0.928-1.152-0.24c-0.09-0.318-0.367-0.592-0.669-0.721
		c-0.286-0.119-0.907-0.107-0.883,0.354c-0.023-0.297-0.295-0.363-0.575-0.334c-0.123-0.094-0.261-0.167-0.39-0.252V2.57v0.177
		c0.009,0.008,0.021,0.013,0.03,0.021c-0.012,0.01-0.027,0.02-0.039,0.03c0.012,0.011,0.027,0.019,0.039,0.03
		c-0.503,0.48-1.14,0.99-1.815,1.258c-0.538,0.213-0.958,0.36-1.333,0.453c0.347,0.258,0.718,0.527,1.099,0.799
		c0.588,0.42,1.2,0.846,1.789,1.242c0.313,0.211,0.62,0.414,0.913,0.602c0.034-0.014,0.066-0.029,0.113-0.031
		c-0.022,0.025-0.047,0.041-0.069,0.061c0.461,0.297,0.877,0.549,1.234,0.752c-0.089,1.959-1.188,3.656-2.796,4.574
		c-0.174,0.1-0.353,0.193-0.539,0.273c-0.678,0.295-1.424,0.459-2.208,0.459s-1.531-0.164-2.208-0.459
		c-0.234-0.102-0.458-0.223-0.674-0.355c-1.603-0.977-2.679-2.734-2.679-4.746c0-0.129,0.011-0.256,0.02-0.385
		C6.958,6.445,7.432,5.707,7.861,5.1c0.407-0.568,0.775-1.021,1.096-1.384C8.943,3.708,8.93,3.7,8.916,3.692
		c-0.021-0.001-0.04,0.004-0.062-0.003c0-0.015,0.012-0.013,0.014-0.024C8.435,3.418,8.066,3.149,7.839,2.836
		c0.012-0.011,0.025-0.019,0.037-0.029C7.866,2.795,7.85,2.785,7.839,2.773c0.01-0.008,0.021-0.014,0.031-0.021V2.589
		C7.728,2.61,7.585,2.644,7.446,2.717C7.43,1.604,5.779,1.799,5.514,2.66C5.15,2.369,4.769,2.697,4.487,2.979
		c-0.107,0.107-0.77,0.984-0.711,1.324c0.057,0.021,0.116,0.063,0.166,0.137C3.842,4.432,3.788,4.381,3.775,4.303
		c-0.291-0.107-0.65,0.332-0.725,0.6C2.977,5.193,3.03,5.4,3.27,5.615c0.021,0.02,0.079,0.053,0.141,0.086
		c-0.542,0.447-0.17,1.4,0.443,1.084C3.639,7.039,3.564,7.42,3.626,7.742c0.058,0.307,0.41,0.816,0.782,0.543
		c-0.406,0.318,0.174,0.881,0.476,1.01c0.171,0.074,0.54,0.084,0.747-0.033c0.357,1.459,1.205,2.729,2.357,3.625
		c-2.26,1.125-3.837,3.559-3.837,5.848v5.055h15.29v-5.055c0-2.207-1.465-4.545-3.594-5.719c1.136-0.824,1.99-2.006,2.415-3.375
		c0.103-0.004,0.207-0.025,0.294-0.053c0.543-0.17,0.895-0.584,0.945-1.139c0.939,0.602,1.691-0.881,1.117-1.58
		C21.065,6.729,21.003,6.227,20.925,5.842z M17.551,15.736l-2.66,0.779l-0.161,0.051L14.727,16.6l0.09,0.104l1.706,1.676
		l-4.435,4.818l-0.32,0.369l-0.01-0.012l-0.011,0.012l0.005-0.016L6.99,18.379l1.688-1.656l-0.019-0.197l-2.697-0.789l2.249-2.684
		c1.073,0.764,2.38,1.217,3.793,1.217c1.277,0,2.466-0.371,3.475-1.006L17.551,15.736z"/>
	<path fill="#FFFFFF" d="M9.748,3.857C8.952,3.556,8.253,3.226,7.876,2.807C7.864,2.817,7.851,2.825,7.839,2.836
		c0.227,0.313,0.595,0.582,1.028,0.829c0.016,0.009,0.032,0.019,0.048,0.027C8.93,3.7,8.943,3.708,8.957,3.716
		c0.248,0.137,0.51,0.269,0.791,0.394c1.195,0.533,1.818,0.654,2.721,0.43c0.376-0.093,0.796-0.24,1.333-0.453
		c0.676-0.268,1.313-0.777,1.815-1.258c-0.012-0.012-0.027-0.02-0.039-0.03c-0.497,0.399-1.117,0.817-1.776,1.038
		C11.975,4.451,11.442,4.5,9.748,3.857z"/>
	<path d="M7.871,2.773V2.753C7.861,2.76,7.849,2.766,7.839,2.773c0.01,0.012,0.026,0.021,0.037,0.033
		c0.377,0.419,1.076,0.749,1.872,1.051c1.694,0.643,2.227,0.594,4.054-0.021c0.659-0.221,1.279-0.639,1.776-1.038
		c0.012-0.011,0.027-0.021,0.039-0.03c-0.009-0.008-0.021-0.013-0.03-0.021v0.026H7.871z"/>
	<polygon fill="#FFFFFF" points="7.871,2.773 15.587,2.773 15.587,2.747 15.587,2.57 7.871,2.57 7.871,2.589 7.871,2.753 	"/>
	<polygon points="15.587,2.248 15.587,0.414 15.587,0.211 7.871,0.211 7.871,0.414 7.871,2.57 15.587,2.57 	"/>
</g>
</svg>
